<mxfile host="Electron" modified="2024-05-07T21:33:15.467Z" agent="Mozilla/5.0 (X11; Linux x86_64) AppleWebKit/537.36 (KHTML, like Gecko) draw.io/24.2.5 Chrome/120.0.6099.109 Electron/28.1.0 Safari/537.36" etag="B3S1ncmchRK3rQqkG7rA" version="24.2.5" type="device">
  <diagram name="Page-1" id="Ea4xXu0gqLUHfZozuJqN">
    <mxGraphModel dx="1434" dy="870" grid="1" gridSize="10" guides="1" tooltips="1" connect="1" arrows="1" fold="1" page="1" pageScale="1" pageWidth="850" pageHeight="1100" math="0" shadow="0">
      <root>
        <mxCell id="0" />
        <mxCell id="1" parent="0" />
        <mxCell id="ugkcPqxHe0HiYFwK6rZR-108" value="" style="rounded=0;whiteSpace=wrap;html=1;fillColor=#FFFFFF;dashed=1;strokeWidth=2;" parent="1" vertex="1">
          <mxGeometry x="560" y="220" width="440" height="440" as="geometry" />
        </mxCell>
        <mxCell id="ugkcPqxHe0HiYFwK6rZR-107" value="" style="rounded=0;whiteSpace=wrap;html=1;fillColor=#FFFFFF;dashed=1;strokeWidth=2;" parent="1" vertex="1">
          <mxGeometry x="120" y="220" width="440" height="440" as="geometry" />
        </mxCell>
        <mxCell id="ugkcPqxHe0HiYFwK6rZR-1" value="&lt;font style=&quot;font-size: 25px;&quot; face=&quot;Times New Roman&quot;&gt;&lt;i style=&quot;font-size: 25px;&quot;&gt;A&lt;/i&gt;&lt;/font&gt;" style="ellipse;whiteSpace=wrap;html=1;aspect=fixed;fontSize=25;strokeWidth=2;fillColor=#2a8665;fontColor=#FFFFFF;" parent="1" vertex="1">
          <mxGeometry x="140" y="240" width="40" height="40" as="geometry" />
        </mxCell>
        <mxCell id="ugkcPqxHe0HiYFwK6rZR-2" value="&lt;font face=&quot;Times New Roman&quot; style=&quot;font-size: 25px;&quot;&gt;&lt;i style=&quot;font-size: 25px;&quot;&gt;B&lt;/i&gt;&lt;/font&gt;" style="ellipse;whiteSpace=wrap;html=1;aspect=fixed;fontSize=25;strokeWidth=2;" parent="1" vertex="1">
          <mxGeometry x="260" y="240" width="40" height="40" as="geometry" />
        </mxCell>
        <mxCell id="ugkcPqxHe0HiYFwK6rZR-3" value="&lt;font face=&quot;Times New Roman&quot; style=&quot;font-size: 25px;&quot;&gt;&lt;i style=&quot;font-size: 25px;&quot;&gt;C&lt;/i&gt;&lt;/font&gt;" style="ellipse;whiteSpace=wrap;html=1;aspect=fixed;fontSize=25;strokeWidth=2;" parent="1" vertex="1">
          <mxGeometry x="380" y="240" width="40" height="40" as="geometry" />
        </mxCell>
        <mxCell id="ugkcPqxHe0HiYFwK6rZR-4" value="&lt;font style=&quot;font-size: 25px;&quot; face=&quot;Times New Roman&quot;&gt;&lt;i style=&quot;font-size: 25px;&quot;&gt;D&lt;/i&gt;&lt;/font&gt;" style="ellipse;whiteSpace=wrap;html=1;aspect=fixed;fontSize=25;strokeWidth=2;fillColor=#2a8665;fontColor=#FFFFFF;" parent="1" vertex="1">
          <mxGeometry x="500" y="240" width="40" height="40" as="geometry" />
        </mxCell>
        <mxCell id="ugkcPqxHe0HiYFwK6rZR-5" value="&lt;font style=&quot;font-size: 25px;&quot; face=&quot;Times New Roman&quot;&gt;&lt;i style=&quot;font-size: 25px;&quot;&gt;E&lt;/i&gt;&lt;/font&gt;" style="ellipse;whiteSpace=wrap;html=1;aspect=fixed;fontSize=25;strokeWidth=2;fillColor=#2a8665;fontColor=#FFFFFF;" parent="1" vertex="1">
          <mxGeometry x="140" y="360" width="40" height="40" as="geometry" />
        </mxCell>
        <mxCell id="ugkcPqxHe0HiYFwK6rZR-6" value="&lt;font style=&quot;font-size: 25px;&quot; face=&quot;Times New Roman&quot;&gt;&lt;i style=&quot;font-size: 25px;&quot;&gt;F&lt;/i&gt;&lt;/font&gt;" style="ellipse;whiteSpace=wrap;html=1;aspect=fixed;fontSize=25;strokeWidth=2;fillColor=#2a8665;fontColor=#FFFFFF;" parent="1" vertex="1">
          <mxGeometry x="260" y="360" width="40" height="40" as="geometry" />
        </mxCell>
        <mxCell id="ugkcPqxHe0HiYFwK6rZR-7" value="&lt;font style=&quot;font-size: 25px;&quot; face=&quot;Times New Roman&quot;&gt;&lt;i style=&quot;font-size: 25px;&quot;&gt;G&lt;/i&gt;&lt;/font&gt;" style="ellipse;whiteSpace=wrap;html=1;aspect=fixed;fontSize=25;strokeWidth=2;fillColor=#2a8665;fontColor=#FFFFFF;" parent="1" vertex="1">
          <mxGeometry x="380" y="360" width="40" height="40" as="geometry" />
        </mxCell>
        <mxCell id="ugkcPqxHe0HiYFwK6rZR-8" value="&lt;font face=&quot;Times New Roman&quot; style=&quot;font-size: 25px;&quot;&gt;&lt;i style=&quot;font-size: 25px;&quot;&gt;H&lt;/i&gt;&lt;/font&gt;" style="ellipse;whiteSpace=wrap;html=1;aspect=fixed;fontSize=25;strokeWidth=2;" parent="1" vertex="1">
          <mxGeometry x="500" y="360" width="40" height="40" as="geometry" />
        </mxCell>
        <mxCell id="ugkcPqxHe0HiYFwK6rZR-9" value="&lt;font style=&quot;font-size: 25px;&quot; face=&quot;Times New Roman&quot;&gt;&lt;i style=&quot;font-size: 25px;&quot;&gt;I&lt;/i&gt;&lt;/font&gt;" style="ellipse;whiteSpace=wrap;html=1;aspect=fixed;fontSize=25;strokeWidth=2;fillColor=#2a8665;fontColor=#FFFFFF;" parent="1" vertex="1">
          <mxGeometry x="140" y="480" width="40" height="40" as="geometry" />
        </mxCell>
        <mxCell id="ugkcPqxHe0HiYFwK6rZR-10" value="&lt;font face=&quot;Times New Roman&quot; style=&quot;font-size: 25px;&quot;&gt;&lt;i style=&quot;font-size: 25px;&quot;&gt;J&lt;/i&gt;&lt;/font&gt;" style="ellipse;whiteSpace=wrap;html=1;aspect=fixed;fontSize=25;strokeWidth=2;" parent="1" vertex="1">
          <mxGeometry x="260" y="480" width="40" height="40" as="geometry" />
        </mxCell>
        <mxCell id="ugkcPqxHe0HiYFwK6rZR-11" value="&lt;font face=&quot;Times New Roman&quot; style=&quot;font-size: 25px;&quot;&gt;&lt;i style=&quot;font-size: 25px;&quot;&gt;K&lt;/i&gt;&lt;/font&gt;" style="ellipse;whiteSpace=wrap;html=1;aspect=fixed;fontSize=25;strokeWidth=2;" parent="1" vertex="1">
          <mxGeometry x="380" y="480" width="40" height="40" as="geometry" />
        </mxCell>
        <mxCell id="ugkcPqxHe0HiYFwK6rZR-12" value="&lt;font face=&quot;Times New Roman&quot; style=&quot;font-size: 25px;&quot;&gt;&lt;i style=&quot;font-size: 25px;&quot;&gt;L&lt;/i&gt;&lt;/font&gt;" style="ellipse;whiteSpace=wrap;html=1;aspect=fixed;fontSize=25;strokeWidth=2;" parent="1" vertex="1">
          <mxGeometry x="500" y="480" width="40" height="40" as="geometry" />
        </mxCell>
        <mxCell id="ugkcPqxHe0HiYFwK6rZR-13" value="&lt;font face=&quot;Times New Roman&quot; style=&quot;font-size: 25px;&quot;&gt;&lt;i style=&quot;font-size: 25px;&quot;&gt;M&lt;/i&gt;&lt;/font&gt;" style="ellipse;whiteSpace=wrap;html=1;aspect=fixed;fontSize=25;strokeWidth=2;" parent="1" vertex="1">
          <mxGeometry x="140" y="600" width="40" height="40" as="geometry" />
        </mxCell>
        <mxCell id="ugkcPqxHe0HiYFwK6rZR-14" value="&lt;font style=&quot;font-size: 25px;&quot; face=&quot;Times New Roman&quot;&gt;&lt;i style=&quot;font-size: 25px;&quot;&gt;N&lt;/i&gt;&lt;/font&gt;" style="ellipse;whiteSpace=wrap;html=1;aspect=fixed;fontSize=25;strokeWidth=2;fillColor=#2a8665;fontColor=#FFFFFF;" parent="1" vertex="1">
          <mxGeometry x="260" y="600" width="40" height="40" as="geometry" />
        </mxCell>
        <mxCell id="ugkcPqxHe0HiYFwK6rZR-15" value="&lt;font face=&quot;Times New Roman&quot; style=&quot;font-size: 25px;&quot;&gt;&lt;i style=&quot;font-size: 25px;&quot;&gt;O&lt;/i&gt;&lt;/font&gt;" style="ellipse;whiteSpace=wrap;html=1;aspect=fixed;fontSize=25;strokeWidth=2;" parent="1" vertex="1">
          <mxGeometry x="380" y="600" width="40" height="40" as="geometry" />
        </mxCell>
        <mxCell id="ugkcPqxHe0HiYFwK6rZR-16" value="&lt;font style=&quot;font-size: 25px;&quot; face=&quot;Times New Roman&quot;&gt;&lt;i style=&quot;font-size: 25px;&quot;&gt;P&lt;/i&gt;&lt;/font&gt;" style="ellipse;whiteSpace=wrap;html=1;aspect=fixed;fontSize=25;strokeWidth=2;fillColor=#2a8665;fontColor=#FFFFFF;" parent="1" vertex="1">
          <mxGeometry x="500" y="600" width="40" height="40" as="geometry" />
        </mxCell>
        <mxCell id="ugkcPqxHe0HiYFwK6rZR-17" value="" style="endArrow=classic;startArrow=classic;html=1;rounded=0;exitX=0.5;exitY=0;exitDx=0;exitDy=0;entryX=0.5;entryY=1;entryDx=0;entryDy=0;strokeWidth=2;" parent="1" source="ugkcPqxHe0HiYFwK6rZR-5" target="ugkcPqxHe0HiYFwK6rZR-1" edge="1">
          <mxGeometry width="50" height="50" relative="1" as="geometry">
            <mxPoint x="180" y="340" as="sourcePoint" />
            <mxPoint x="230" y="290" as="targetPoint" />
          </mxGeometry>
        </mxCell>
        <mxCell id="ugkcPqxHe0HiYFwK6rZR-18" value="" style="endArrow=classic;startArrow=classic;html=1;rounded=0;exitX=0.5;exitY=0;exitDx=0;exitDy=0;entryX=0.5;entryY=1;entryDx=0;entryDy=0;strokeWidth=2;" parent="1" edge="1">
          <mxGeometry width="50" height="50" relative="1" as="geometry">
            <mxPoint x="279.65999999999997" y="360" as="sourcePoint" />
            <mxPoint x="279.65999999999997" y="280" as="targetPoint" />
          </mxGeometry>
        </mxCell>
        <mxCell id="ugkcPqxHe0HiYFwK6rZR-19" value="" style="endArrow=classic;startArrow=classic;html=1;rounded=0;exitX=0.5;exitY=0;exitDx=0;exitDy=0;entryX=0.5;entryY=1;entryDx=0;entryDy=0;strokeWidth=2;" parent="1" edge="1">
          <mxGeometry width="50" height="50" relative="1" as="geometry">
            <mxPoint x="399.65999999999997" y="360" as="sourcePoint" />
            <mxPoint x="399.65999999999997" y="280" as="targetPoint" />
          </mxGeometry>
        </mxCell>
        <mxCell id="ugkcPqxHe0HiYFwK6rZR-20" value="" style="endArrow=classic;startArrow=classic;html=1;rounded=0;exitX=0.5;exitY=0;exitDx=0;exitDy=0;entryX=0.5;entryY=1;entryDx=0;entryDy=0;strokeWidth=2;" parent="1" edge="1">
          <mxGeometry width="50" height="50" relative="1" as="geometry">
            <mxPoint x="519.66" y="360" as="sourcePoint" />
            <mxPoint x="519.66" y="280" as="targetPoint" />
          </mxGeometry>
        </mxCell>
        <mxCell id="ugkcPqxHe0HiYFwK6rZR-21" value="" style="endArrow=classic;startArrow=classic;html=1;rounded=0;exitX=0.5;exitY=0;exitDx=0;exitDy=0;entryX=0.5;entryY=1;entryDx=0;entryDy=0;strokeWidth=2;" parent="1" edge="1">
          <mxGeometry width="50" height="50" relative="1" as="geometry">
            <mxPoint x="160" y="480" as="sourcePoint" />
            <mxPoint x="160" y="400" as="targetPoint" />
          </mxGeometry>
        </mxCell>
        <mxCell id="ugkcPqxHe0HiYFwK6rZR-22" value="" style="endArrow=classic;startArrow=classic;html=1;rounded=0;exitX=0.5;exitY=0;exitDx=0;exitDy=0;entryX=0.5;entryY=1;entryDx=0;entryDy=0;strokeWidth=2;" parent="1" edge="1">
          <mxGeometry width="50" height="50" relative="1" as="geometry">
            <mxPoint x="279.65999999999997" y="480" as="sourcePoint" />
            <mxPoint x="279.65999999999997" y="400" as="targetPoint" />
          </mxGeometry>
        </mxCell>
        <mxCell id="ugkcPqxHe0HiYFwK6rZR-23" value="" style="endArrow=classic;startArrow=classic;html=1;rounded=0;exitX=0.5;exitY=0;exitDx=0;exitDy=0;entryX=0.5;entryY=1;entryDx=0;entryDy=0;strokeWidth=2;" parent="1" edge="1">
          <mxGeometry width="50" height="50" relative="1" as="geometry">
            <mxPoint x="399.65999999999997" y="480" as="sourcePoint" />
            <mxPoint x="399.65999999999997" y="400" as="targetPoint" />
          </mxGeometry>
        </mxCell>
        <mxCell id="ugkcPqxHe0HiYFwK6rZR-24" value="" style="endArrow=classic;startArrow=classic;html=1;rounded=0;exitX=0.5;exitY=0;exitDx=0;exitDy=0;entryX=0.5;entryY=1;entryDx=0;entryDy=0;strokeWidth=2;" parent="1" edge="1">
          <mxGeometry width="50" height="50" relative="1" as="geometry">
            <mxPoint x="519.66" y="480" as="sourcePoint" />
            <mxPoint x="519.66" y="400" as="targetPoint" />
          </mxGeometry>
        </mxCell>
        <mxCell id="ugkcPqxHe0HiYFwK6rZR-25" value="" style="endArrow=classic;startArrow=classic;html=1;rounded=0;exitX=0.5;exitY=0;exitDx=0;exitDy=0;entryX=0.5;entryY=1;entryDx=0;entryDy=0;strokeWidth=2;" parent="1" edge="1">
          <mxGeometry width="50" height="50" relative="1" as="geometry">
            <mxPoint x="160" y="600" as="sourcePoint" />
            <mxPoint x="160" y="520" as="targetPoint" />
          </mxGeometry>
        </mxCell>
        <mxCell id="ugkcPqxHe0HiYFwK6rZR-26" value="" style="endArrow=classic;startArrow=classic;html=1;rounded=0;exitX=0.5;exitY=0;exitDx=0;exitDy=0;entryX=0.5;entryY=1;entryDx=0;entryDy=0;strokeWidth=2;" parent="1" edge="1">
          <mxGeometry width="50" height="50" relative="1" as="geometry">
            <mxPoint x="279.65999999999997" y="600" as="sourcePoint" />
            <mxPoint x="279.65999999999997" y="520" as="targetPoint" />
          </mxGeometry>
        </mxCell>
        <mxCell id="ugkcPqxHe0HiYFwK6rZR-27" value="" style="endArrow=classic;startArrow=classic;html=1;rounded=0;exitX=0.5;exitY=0;exitDx=0;exitDy=0;entryX=0.5;entryY=1;entryDx=0;entryDy=0;strokeWidth=2;" parent="1" edge="1">
          <mxGeometry width="50" height="50" relative="1" as="geometry">
            <mxPoint x="399.65999999999997" y="600" as="sourcePoint" />
            <mxPoint x="399.65999999999997" y="520" as="targetPoint" />
          </mxGeometry>
        </mxCell>
        <mxCell id="ugkcPqxHe0HiYFwK6rZR-28" value="" style="endArrow=classic;startArrow=classic;html=1;rounded=0;exitX=0.5;exitY=0;exitDx=0;exitDy=0;entryX=0.5;entryY=1;entryDx=0;entryDy=0;strokeWidth=2;" parent="1" edge="1">
          <mxGeometry width="50" height="50" relative="1" as="geometry">
            <mxPoint x="519.66" y="600" as="sourcePoint" />
            <mxPoint x="519.66" y="520" as="targetPoint" />
          </mxGeometry>
        </mxCell>
        <mxCell id="ugkcPqxHe0HiYFwK6rZR-29" value="" style="endArrow=classic;startArrow=classic;html=1;rounded=0;exitX=1;exitY=0.5;exitDx=0;exitDy=0;strokeWidth=2;" parent="1" source="ugkcPqxHe0HiYFwK6rZR-1" target="ugkcPqxHe0HiYFwK6rZR-2" edge="1">
          <mxGeometry width="50" height="50" relative="1" as="geometry">
            <mxPoint x="370" y="430" as="sourcePoint" />
            <mxPoint x="420" y="380" as="targetPoint" />
          </mxGeometry>
        </mxCell>
        <mxCell id="ugkcPqxHe0HiYFwK6rZR-30" value="" style="endArrow=classic;startArrow=classic;html=1;rounded=0;exitX=1;exitY=0.5;exitDx=0;exitDy=0;strokeWidth=2;" parent="1" edge="1">
          <mxGeometry width="50" height="50" relative="1" as="geometry">
            <mxPoint x="180" y="379.65999999999997" as="sourcePoint" />
            <mxPoint x="260" y="379.65999999999997" as="targetPoint" />
          </mxGeometry>
        </mxCell>
        <mxCell id="ugkcPqxHe0HiYFwK6rZR-31" value="" style="endArrow=classic;startArrow=classic;html=1;rounded=0;exitX=1;exitY=0.5;exitDx=0;exitDy=0;strokeWidth=2;" parent="1" edge="1">
          <mxGeometry width="50" height="50" relative="1" as="geometry">
            <mxPoint x="180" y="499.65999999999997" as="sourcePoint" />
            <mxPoint x="260" y="499.65999999999997" as="targetPoint" />
          </mxGeometry>
        </mxCell>
        <mxCell id="ugkcPqxHe0HiYFwK6rZR-32" value="" style="endArrow=classic;startArrow=classic;html=1;rounded=0;exitX=1;exitY=0.5;exitDx=0;exitDy=0;strokeWidth=2;" parent="1" edge="1">
          <mxGeometry width="50" height="50" relative="1" as="geometry">
            <mxPoint x="180" y="619.66" as="sourcePoint" />
            <mxPoint x="260" y="619.66" as="targetPoint" />
          </mxGeometry>
        </mxCell>
        <mxCell id="ugkcPqxHe0HiYFwK6rZR-33" value="" style="endArrow=classic;startArrow=classic;html=1;rounded=0;exitX=1;exitY=0.5;exitDx=0;exitDy=0;strokeWidth=2;" parent="1" edge="1">
          <mxGeometry width="50" height="50" relative="1" as="geometry">
            <mxPoint x="300" y="260" as="sourcePoint" />
            <mxPoint x="380" y="260" as="targetPoint" />
          </mxGeometry>
        </mxCell>
        <mxCell id="ugkcPqxHe0HiYFwK6rZR-34" value="" style="endArrow=classic;startArrow=classic;html=1;rounded=0;exitX=1;exitY=0.5;exitDx=0;exitDy=0;strokeWidth=2;" parent="1" edge="1">
          <mxGeometry width="50" height="50" relative="1" as="geometry">
            <mxPoint x="300" y="379.65999999999997" as="sourcePoint" />
            <mxPoint x="380" y="379.65999999999997" as="targetPoint" />
          </mxGeometry>
        </mxCell>
        <mxCell id="ugkcPqxHe0HiYFwK6rZR-35" value="" style="endArrow=classic;startArrow=classic;html=1;rounded=0;exitX=1;exitY=0.5;exitDx=0;exitDy=0;strokeWidth=2;" parent="1" edge="1">
          <mxGeometry width="50" height="50" relative="1" as="geometry">
            <mxPoint x="300" y="499.65999999999997" as="sourcePoint" />
            <mxPoint x="380" y="499.65999999999997" as="targetPoint" />
          </mxGeometry>
        </mxCell>
        <mxCell id="ugkcPqxHe0HiYFwK6rZR-36" value="" style="endArrow=classic;startArrow=classic;html=1;rounded=0;exitX=1;exitY=0.5;exitDx=0;exitDy=0;strokeWidth=2;" parent="1" edge="1">
          <mxGeometry width="50" height="50" relative="1" as="geometry">
            <mxPoint x="300" y="619.66" as="sourcePoint" />
            <mxPoint x="380" y="619.66" as="targetPoint" />
          </mxGeometry>
        </mxCell>
        <mxCell id="ugkcPqxHe0HiYFwK6rZR-37" value="" style="endArrow=classic;startArrow=classic;html=1;rounded=0;exitX=1;exitY=0.5;exitDx=0;exitDy=0;strokeWidth=2;" parent="1" edge="1">
          <mxGeometry width="50" height="50" relative="1" as="geometry">
            <mxPoint x="420" y="260" as="sourcePoint" />
            <mxPoint x="500" y="260" as="targetPoint" />
          </mxGeometry>
        </mxCell>
        <mxCell id="ugkcPqxHe0HiYFwK6rZR-38" value="" style="endArrow=classic;startArrow=classic;html=1;rounded=0;exitX=1;exitY=0.5;exitDx=0;exitDy=0;strokeWidth=2;" parent="1" edge="1">
          <mxGeometry width="50" height="50" relative="1" as="geometry">
            <mxPoint x="420" y="379.65999999999997" as="sourcePoint" />
            <mxPoint x="500" y="379.65999999999997" as="targetPoint" />
          </mxGeometry>
        </mxCell>
        <mxCell id="ugkcPqxHe0HiYFwK6rZR-39" value="" style="endArrow=classic;startArrow=classic;html=1;rounded=0;exitX=1;exitY=0.5;exitDx=0;exitDy=0;strokeWidth=2;" parent="1" edge="1">
          <mxGeometry width="50" height="50" relative="1" as="geometry">
            <mxPoint x="420" y="499.65999999999997" as="sourcePoint" />
            <mxPoint x="500" y="499.65999999999997" as="targetPoint" />
          </mxGeometry>
        </mxCell>
        <mxCell id="ugkcPqxHe0HiYFwK6rZR-40" value="" style="endArrow=classic;startArrow=classic;html=1;rounded=0;exitX=1;exitY=0.5;exitDx=0;exitDy=0;strokeWidth=2;" parent="1" edge="1">
          <mxGeometry width="50" height="50" relative="1" as="geometry">
            <mxPoint x="420" y="619.66" as="sourcePoint" />
            <mxPoint x="500" y="619.66" as="targetPoint" />
          </mxGeometry>
        </mxCell>
        <mxCell id="ugkcPqxHe0HiYFwK6rZR-41" value="&lt;font style=&quot;font-size: 25px;&quot;&gt;&lt;i style=&quot;font-size: 25px;&quot;&gt;A&lt;/i&gt;&lt;/font&gt;" style="ellipse;whiteSpace=wrap;html=1;aspect=fixed;fontSize=25;strokeWidth=2;fillColor=#2A8665;fontColor=#FFFFFF;fontFamily=Times New Roman;" parent="1" vertex="1">
          <mxGeometry x="580" y="240" width="40" height="40" as="geometry" />
        </mxCell>
        <mxCell id="ugkcPqxHe0HiYFwK6rZR-44" value="&lt;font style=&quot;font-size: 25px;&quot;&gt;&lt;i style=&quot;font-size: 25px;&quot;&gt;D&lt;/i&gt;&lt;/font&gt;" style="ellipse;whiteSpace=wrap;html=1;aspect=fixed;fontSize=25;strokeWidth=2;fillColor=#2A8665;fontColor=#FFFFFF;fontFamily=Times New Roman;" parent="1" vertex="1">
          <mxGeometry x="940" y="240" width="40" height="40" as="geometry" />
        </mxCell>
        <mxCell id="ugkcPqxHe0HiYFwK6rZR-45" value="&lt;font style=&quot;font-size: 25px;&quot;&gt;&lt;i style=&quot;font-size: 25px;&quot;&gt;E&lt;/i&gt;&lt;/font&gt;" style="ellipse;whiteSpace=wrap;html=1;aspect=fixed;fontSize=25;strokeWidth=2;fillColor=#2A8665;fontColor=#FFFFFF;fontFamily=Times New Roman;" parent="1" vertex="1">
          <mxGeometry x="580" y="360" width="40" height="40" as="geometry" />
        </mxCell>
        <mxCell id="ugkcPqxHe0HiYFwK6rZR-46" value="&lt;font style=&quot;font-size: 25px;&quot;&gt;&lt;i style=&quot;font-size: 25px;&quot;&gt;F&lt;/i&gt;&lt;/font&gt;" style="ellipse;whiteSpace=wrap;html=1;aspect=fixed;fontSize=25;strokeWidth=2;fillColor=#2A8665;fontColor=#FFFFFF;fontFamily=Times New Roman;" parent="1" vertex="1">
          <mxGeometry x="700" y="360" width="40" height="40" as="geometry" />
        </mxCell>
        <mxCell id="ugkcPqxHe0HiYFwK6rZR-47" value="&lt;font style=&quot;font-size: 25px;&quot;&gt;&lt;i style=&quot;font-size: 25px;&quot;&gt;G&lt;/i&gt;&lt;/font&gt;" style="ellipse;whiteSpace=wrap;html=1;aspect=fixed;fontSize=25;strokeWidth=2;fillColor=#2A8665;fontColor=#FFFFFF;fontFamily=Times New Roman;" parent="1" vertex="1">
          <mxGeometry x="820" y="360" width="40" height="40" as="geometry" />
        </mxCell>
        <mxCell id="ugkcPqxHe0HiYFwK6rZR-49" value="&lt;font style=&quot;font-size: 25px;&quot;&gt;&lt;i style=&quot;font-size: 25px;&quot;&gt;I&lt;/i&gt;&lt;/font&gt;" style="ellipse;whiteSpace=wrap;html=1;aspect=fixed;fontSize=25;strokeWidth=2;fillColor=#2A8665;fontColor=#FFFFFF;fontFamily=Times New Roman;" parent="1" vertex="1">
          <mxGeometry x="580" y="480" width="40" height="40" as="geometry" />
        </mxCell>
        <mxCell id="ugkcPqxHe0HiYFwK6rZR-54" value="&lt;font style=&quot;font-size: 25px;&quot;&gt;&lt;i style=&quot;font-size: 25px;&quot;&gt;N&lt;/i&gt;&lt;/font&gt;" style="ellipse;whiteSpace=wrap;html=1;aspect=fixed;fontSize=25;strokeWidth=2;fillColor=#2A8665;fontColor=#FFFFFF;fontFamily=Times New Roman;" parent="1" vertex="1">
          <mxGeometry x="700" y="600" width="40" height="40" as="geometry" />
        </mxCell>
        <mxCell id="ugkcPqxHe0HiYFwK6rZR-56" value="&lt;font style=&quot;font-size: 25px;&quot;&gt;&lt;i style=&quot;font-size: 25px;&quot;&gt;P&lt;/i&gt;&lt;/font&gt;" style="ellipse;whiteSpace=wrap;html=1;aspect=fixed;fontSize=25;strokeWidth=2;fillColor=#2A8665;fontColor=#FFFFFF;fontFamily=Times New Roman;" parent="1" vertex="1">
          <mxGeometry x="940" y="600" width="40" height="40" as="geometry" />
        </mxCell>
        <mxCell id="ugkcPqxHe0HiYFwK6rZR-57" value="1" style="endArrow=classic;startArrow=classic;html=1;rounded=0;exitX=0.5;exitY=0;exitDx=0;exitDy=0;entryX=0.5;entryY=1;entryDx=0;entryDy=0;strokeWidth=2;fontColor=#000000;fontFamily=Times New Roman;fontSize=25;" parent="1" source="ugkcPqxHe0HiYFwK6rZR-45" target="ugkcPqxHe0HiYFwK6rZR-41" edge="1">
          <mxGeometry width="50" height="50" relative="1" as="geometry">
            <mxPoint x="620" y="340" as="sourcePoint" />
            <mxPoint x="670" y="290" as="targetPoint" />
          </mxGeometry>
        </mxCell>
        <mxCell id="ugkcPqxHe0HiYFwK6rZR-59" value="" style="endArrow=classic;startArrow=classic;html=1;rounded=0;exitX=1;exitY=0;exitDx=0;exitDy=0;entryX=0;entryY=1;entryDx=0;entryDy=0;strokeWidth=2;fontColor=#FFFFFF;fontFamily=Times New Roman;fontSize=25;" parent="1" source="ugkcPqxHe0HiYFwK6rZR-47" target="ugkcPqxHe0HiYFwK6rZR-44" edge="1">
          <mxGeometry width="50" height="50" relative="1" as="geometry">
            <mxPoint x="839.66" y="360" as="sourcePoint" />
            <mxPoint x="839.66" y="280" as="targetPoint" />
          </mxGeometry>
        </mxCell>
        <mxCell id="ugkcPqxHe0HiYFwK6rZR-95" value="1.4" style="edgeLabel;html=1;align=center;verticalAlign=middle;resizable=0;points=[];fontFamily=Times New Roman;fontSize=25;" parent="ugkcPqxHe0HiYFwK6rZR-59" vertex="1" connectable="0">
          <mxGeometry x="-0.0309" y="3" relative="1" as="geometry">
            <mxPoint as="offset" />
          </mxGeometry>
        </mxCell>
        <mxCell id="ugkcPqxHe0HiYFwK6rZR-61" value="1" style="endArrow=classic;startArrow=classic;html=1;rounded=0;exitX=0.5;exitY=0;exitDx=0;exitDy=0;entryX=0.5;entryY=1;entryDx=0;entryDy=0;strokeWidth=2;fontColor=#000000;fontFamily=Times New Roman;fontSize=25;" parent="1" edge="1">
          <mxGeometry width="50" height="50" relative="1" as="geometry">
            <mxPoint x="600" y="480" as="sourcePoint" />
            <mxPoint x="600" y="400" as="targetPoint" />
          </mxGeometry>
        </mxCell>
        <mxCell id="ugkcPqxHe0HiYFwK6rZR-66" value="" style="endArrow=classic;startArrow=classic;html=1;rounded=0;exitX=0.5;exitY=0;exitDx=0;exitDy=0;entryX=0.5;entryY=1;entryDx=0;entryDy=0;strokeWidth=2;fontColor=#FFFFFF;fontFamily=Times New Roman;fontSize=25;" parent="1" target="ugkcPqxHe0HiYFwK6rZR-46" edge="1">
          <mxGeometry width="50" height="50" relative="1" as="geometry">
            <mxPoint x="719.66" y="600" as="sourcePoint" />
            <mxPoint x="719.66" y="520" as="targetPoint" />
            <Array as="points">
              <mxPoint x="720" y="490" />
            </Array>
          </mxGeometry>
        </mxCell>
        <mxCell id="ugkcPqxHe0HiYFwK6rZR-92" value="2" style="edgeLabel;html=1;align=center;verticalAlign=middle;resizable=0;points=[];fontFamily=Times New Roman;fontSize=25;" parent="ugkcPqxHe0HiYFwK6rZR-66" vertex="1" connectable="0">
          <mxGeometry x="-0.07" y="2" relative="1" as="geometry">
            <mxPoint x="2" y="-7" as="offset" />
          </mxGeometry>
        </mxCell>
        <mxCell id="ugkcPqxHe0HiYFwK6rZR-70" value="" style="endArrow=classic;startArrow=classic;html=1;rounded=0;exitX=1;exitY=0.5;exitDx=0;exitDy=0;strokeWidth=2;fontColor=#FFFFFF;fontFamily=Times New Roman;fontSize=25;" parent="1" edge="1">
          <mxGeometry width="50" height="50" relative="1" as="geometry">
            <mxPoint x="620" y="379.65999999999997" as="sourcePoint" />
            <mxPoint x="700" y="379.65999999999997" as="targetPoint" />
          </mxGeometry>
        </mxCell>
        <mxCell id="ugkcPqxHe0HiYFwK6rZR-98" value="&lt;font style=&quot;font-size: 25px;&quot; face=&quot;Times New Roman&quot;&gt;1&lt;/font&gt;" style="edgeLabel;html=1;align=center;verticalAlign=middle;resizable=0;points=[];" parent="ugkcPqxHe0HiYFwK6rZR-70" vertex="1" connectable="0">
          <mxGeometry x="0.0208" y="3" relative="1" as="geometry">
            <mxPoint y="3" as="offset" />
          </mxGeometry>
        </mxCell>
        <mxCell id="ugkcPqxHe0HiYFwK6rZR-72" value="" style="endArrow=classic;startArrow=classic;html=1;rounded=0;exitX=1;exitY=1;exitDx=0;exitDy=0;strokeWidth=2;entryX=0;entryY=0;entryDx=0;entryDy=0;fontColor=#FFFFFF;fontFamily=Times New Roman;fontSize=25;" parent="1" source="ugkcPqxHe0HiYFwK6rZR-49" target="ugkcPqxHe0HiYFwK6rZR-54" edge="1">
          <mxGeometry width="50" height="50" relative="1" as="geometry">
            <mxPoint x="620" y="619.66" as="sourcePoint" />
            <mxPoint x="700" y="619.66" as="targetPoint" />
          </mxGeometry>
        </mxCell>
        <mxCell id="ugkcPqxHe0HiYFwK6rZR-91" value="1.4" style="edgeLabel;html=1;align=center;verticalAlign=middle;resizable=0;points=[];fontFamily=Times New Roman;fontSize=25;" parent="ugkcPqxHe0HiYFwK6rZR-72" vertex="1" connectable="0">
          <mxGeometry x="-0.1054" y="-1" relative="1" as="geometry">
            <mxPoint x="5" y="4" as="offset" />
          </mxGeometry>
        </mxCell>
        <mxCell id="ugkcPqxHe0HiYFwK6rZR-74" value="" style="endArrow=classic;startArrow=classic;html=1;rounded=0;exitX=1;exitY=0.5;exitDx=0;exitDy=0;strokeWidth=2;fontColor=#FFFFFF;fontFamily=Times New Roman;fontSize=25;" parent="1" edge="1">
          <mxGeometry width="50" height="50" relative="1" as="geometry">
            <mxPoint x="740" y="379.65999999999997" as="sourcePoint" />
            <mxPoint x="820" y="379.65999999999997" as="targetPoint" />
          </mxGeometry>
        </mxCell>
        <mxCell id="ugkcPqxHe0HiYFwK6rZR-76" value="" style="endArrow=classic;startArrow=classic;html=1;rounded=0;exitX=1;exitY=0.5;exitDx=0;exitDy=0;strokeWidth=2;entryX=0;entryY=0.5;entryDx=0;entryDy=0;fontColor=#FFFFFF;fontFamily=Times New Roman;fontSize=25;" parent="1" target="ugkcPqxHe0HiYFwK6rZR-56" edge="1">
          <mxGeometry width="50" height="50" relative="1" as="geometry">
            <mxPoint x="740" y="619.66" as="sourcePoint" />
            <mxPoint x="820" y="619.66" as="targetPoint" />
          </mxGeometry>
        </mxCell>
        <mxCell id="ugkcPqxHe0HiYFwK6rZR-93" value="2" style="edgeLabel;html=1;align=center;verticalAlign=middle;resizable=0;points=[];fontFamily=Times New Roman;fontSize=25;" parent="ugkcPqxHe0HiYFwK6rZR-76" vertex="1" connectable="0">
          <mxGeometry x="0.0333" y="3" relative="1" as="geometry">
            <mxPoint x="-3" y="3" as="offset" />
          </mxGeometry>
        </mxCell>
        <mxCell id="ugkcPqxHe0HiYFwK6rZR-82" value="" style="endArrow=classic;startArrow=classic;html=1;rounded=0;exitX=0;exitY=0;exitDx=0;exitDy=0;entryX=1;entryY=1;entryDx=0;entryDy=0;strokeWidth=2;fontColor=#FFFFFF;fontFamily=Times New Roman;fontSize=25;" parent="1" source="ugkcPqxHe0HiYFwK6rZR-46" target="ugkcPqxHe0HiYFwK6rZR-41" edge="1">
          <mxGeometry width="50" height="50" relative="1" as="geometry">
            <mxPoint x="610" y="370" as="sourcePoint" />
            <mxPoint x="610" y="290" as="targetPoint" />
          </mxGeometry>
        </mxCell>
        <mxCell id="ugkcPqxHe0HiYFwK6rZR-89" value="1.4" style="edgeLabel;html=1;align=center;verticalAlign=middle;resizable=0;points=[];fontFamily=Times New Roman;fontSize=25;" parent="ugkcPqxHe0HiYFwK6rZR-82" vertex="1" connectable="0">
          <mxGeometry x="0.0236" y="3" relative="1" as="geometry">
            <mxPoint as="offset" />
          </mxGeometry>
        </mxCell>
        <mxCell id="ugkcPqxHe0HiYFwK6rZR-83" value="" style="endArrow=classic;startArrow=classic;html=1;rounded=0;exitX=1;exitY=0;exitDx=0;exitDy=0;entryX=0;entryY=1;entryDx=0;entryDy=0;strokeWidth=2;fontColor=#FFFFFF;fontFamily=Times New Roman;fontSize=25;" parent="1" source="ugkcPqxHe0HiYFwK6rZR-49" target="ugkcPqxHe0HiYFwK6rZR-46" edge="1">
          <mxGeometry width="50" height="50" relative="1" as="geometry">
            <mxPoint x="864" y="376" as="sourcePoint" />
            <mxPoint x="956" y="284" as="targetPoint" />
          </mxGeometry>
        </mxCell>
        <mxCell id="ugkcPqxHe0HiYFwK6rZR-90" value="1.4" style="edgeLabel;html=1;align=center;verticalAlign=middle;resizable=0;points=[];fontFamily=Times New Roman;fontSize=25;" parent="ugkcPqxHe0HiYFwK6rZR-83" vertex="1" connectable="0">
          <mxGeometry x="-0.0945" y="-1" relative="1" as="geometry">
            <mxPoint x="1" y="-5" as="offset" />
          </mxGeometry>
        </mxCell>
        <mxCell id="ugkcPqxHe0HiYFwK6rZR-103" value="&lt;font style=&quot;font-size: 25px;&quot; face=&quot;Times New Roman&quot;&gt;1&lt;/font&gt;" style="edgeLabel;html=1;align=center;verticalAlign=middle;resizable=0;points=[];" parent="1" vertex="1" connectable="0">
          <mxGeometry x="780.0033333333334" y="379.99999999999983" as="geometry" />
        </mxCell>
        <mxCell id="ugkcPqxHe0HiYFwK6rZR-110" value="Original Network Graph" style="text;html=1;align=center;verticalAlign=middle;resizable=0;points=[];autosize=1;strokeColor=none;fillColor=none;fontFamily=Times New Roman;fontSize=25;" parent="1" vertex="1">
          <mxGeometry x="205" y="660" width="270" height="40" as="geometry" />
        </mxCell>
        <mxCell id="ugkcPqxHe0HiYFwK6rZR-111" value="Reduced Network Graph" style="text;html=1;align=center;verticalAlign=middle;resizable=0;points=[];autosize=1;strokeColor=none;fillColor=none;fontFamily=Times New Roman;fontSize=25;" parent="1" vertex="1">
          <mxGeometry x="645" y="660" width="270" height="40" as="geometry" />
        </mxCell>
      </root>
    </mxGraphModel>
  </diagram>
</mxfile>
